<svg xmlns="http://www.w3.org/2000/svg" style="display:none">
<symbol id="icon-land" viewBox="0 0 64 64">
  <rect width="64" height="64" rx="16" fill="#eaf7ef"/>
  <path d="M7 17h50 M12 17c5-8 10-8 15 0M31 17c4-6 9-6 14 0M16 17v-7h8v7M38 17v-9h9v9" fill="none" stroke="#0b4f9f" stroke-width="3" stroke-linecap="round" stroke-linejoin="round"/>
  <circle cx="52" cy="52" r="8" fill="#0f7a3a" opacity="0.92"/>
</symbol>
<symbol id="icon-territory" viewBox="0 0 64 64">
  <rect width="64" height="64" rx="16" fill="#eaf7ef"/>
  <path d="M12 48V12l14 6 13-6 13 6v36l-13-6-13 6-14-6z M26 18v36 M39 12v36" fill="none" stroke="#0b4f9f" stroke-width="3" stroke-linecap="round" stroke-linejoin="round"/>
  <circle cx="52" cy="52" r="8" fill="#0f7a3a" opacity="0.92"/>
</symbol>
<symbol id="icon-greenhouse" viewBox="0 0 64 64">
  <rect width="64" height="64" rx="16" fill="#eaf7ef"/>
  <path d="M8 45h48V24L32 10 8 24v21z M14 45V27l18-10 18 10v18 M22 45V30h20v15 M16 39c5-9 11-9 16 0 M32 39c5-9 11-9 16 0" fill="none" stroke="#0b4f9f" stroke-width="3" stroke-linecap="round" stroke-linejoin="round"/>
  <circle cx="52" cy="52" r="8" fill="#0f7a3a" opacity="0.92"/>
</symbol>
<symbol id="icon-hydroponic-towers" viewBox="0 0 64 64">
  <rect width="64" height="64" rx="16" fill="#eaf7ef"/>
  <path d="M32 10v44 M22 18h20 M22 30h20 M22 42h20 M20 18c-6 0-8 4-8 4s4 4 10 0 M44 30c6 0 8 4 8 4s-4 4-10 0 M20 42c-6 0-8 4-8 4s4 4 10 0 M44 18c6 0 8 4 8 4s-4 4-10 0" fill="none" stroke="#0b4f9f" stroke-width="3" stroke-linecap="round" stroke-linejoin="round"/>
  <circle cx="52" cy="52" r="8" fill="#0f7a3a" opacity="0.92"/>
</symbol>
<symbol id="icon-water" viewBox="0 0 64 64">
  <rect width="64" height="64" rx="16" fill="#eaf7ef"/>
  <path d="M32 8c10 13 16 21 16 31a16 16 0 0 1-32 0c0-10 6-18 16-31z M23 40c3 6 10 8 16 4" fill="none" stroke="#0b4f9f" stroke-width="3" stroke-linecap="round" stroke-linejoin="round"/>
  <circle cx="52" cy="52" r="8" fill="#0f7a3a" opacity="0.92"/>
</symbol>
<symbol id="icon-rainfall" viewBox="0 0 64 64">
  <rect width="64" height="64" rx="16" fill="#eaf7ef"/>
  <path d="M18 25c0-8 6-14 14-14 6 0 11 3 13 8 6 1 11 6 11 13 0 8-6 14-14 14H21c-7 0-13-5-13-12 0-5 4-9 10-9z M20 52l-3 6 M32 52l-3 6 M44 52l-3 6" fill="none" stroke="#0b4f9f" stroke-width="3" stroke-linecap="round" stroke-linejoin="round"/>
  <circle cx="52" cy="52" r="8" fill="#0f7a3a" opacity="0.92"/>
</symbol>
<symbol id="icon-rainwater-capture" viewBox="0 0 64 64">
  <rect width="64" height="64" rx="16" fill="#eaf7ef"/>
  <path d="M12 15h40v10H12z M17 25v26h30V25 M24 34h16 M24 42h16 M32 5c6 7 9 11 9 16" fill="none" stroke="#0b4f9f" stroke-width="3" stroke-linecap="round" stroke-linejoin="round"/>
  <circle cx="52" cy="52" r="8" fill="#0f7a3a" opacity="0.92"/>
</symbol>
<symbol id="icon-solar" viewBox="0 0 64 64">
  <rect width="64" height="64" rx="16" fill="#eaf7ef"/>
  <path d="M32 8v7 M32 49v7 M8 32h7 M49 32h7 M15 15l5 5 M44 44l5 5 M49 15l-5 5 M20 44l-5 5 M32 22a10 10 0 1 1 0 20 10 10 0 0 1 0-20z M16 55h32l-5-13H21z" fill="none" stroke="#0b4f9f" stroke-width="3" stroke-linecap="round" stroke-linejoin="round"/>
  <circle cx="52" cy="52" r="8" fill="#0f7a3a" opacity="0.92"/>
</symbol>
<symbol id="icon-energy" viewBox="0 0 64 64">
  <rect width="64" height="64" rx="16" fill="#eaf7ef"/>
  <path d="M35 6L16 36h14l-3 22 21-32H34z" fill="none" stroke="#0b4f9f" stroke-width="3" stroke-linecap="round" stroke-linejoin="round"/>
  <circle cx="52" cy="52" r="8" fill="#0f7a3a" opacity="0.92"/>
</symbol>
<symbol id="icon-climate" viewBox="0 0 64 64">
  <rect width="64" height="64" rx="16" fill="#eaf7ef"/>
  <path d="M18 41a14 14 0 1 0 28 0 11 11 0 0 0-7-10V15a7 7 0 0 0-14 0v16a11 11 0 0 0-7 10z M32 18v24 M25 49h14" fill="none" stroke="#0b4f9f" stroke-width="3" stroke-linecap="round" stroke-linejoin="round"/>
  <circle cx="52" cy="52" r="8" fill="#0f7a3a" opacity="0.92"/>
</symbol>
<symbol id="icon-crops" viewBox="0 0 64 64">
  <rect width="64" height="64" rx="16" fill="#eaf7ef"/>
  <path d="M32 54V24 M32 28c-10-8-17-6-22 2 8 8 16 8 22-2z M32 39c10-8 17-6 22 2-8 8-16 8-22-2z M20 54h24" fill="none" stroke="#0b4f9f" stroke-width="3" stroke-linecap="round" stroke-linejoin="round"/>
  <circle cx="52" cy="52" r="8" fill="#0f7a3a" opacity="0.92"/>
</symbol>
<symbol id="icon-microgreens" viewBox="0 0 64 64">
  <rect width="64" height="64" rx="16" fill="#eaf7ef"/>
  <path d="M12 48h40v8H12z M17 48V35 M27 48V30 M37 48V33 M47 48V37 M17 35c-6-4-8-8-7-13 7 1 11 6 7 13z M27 30c-6-5-6-11-2-16 7 4 8 10 2 16z M37 33c6-5 7-10 4-16-8 3-10 9-4 16z M47 37c6-4 8-8 7-13-7 1-11 6-7 13z" fill="none" stroke="#0b4f9f" stroke-width="3" stroke-linecap="round" stroke-linejoin="round"/>
  <circle cx="52" cy="52" r="8" fill="#0f7a3a" opacity="0.92"/>
</symbol>
<symbol id="icon-mushrooms" viewBox="0 0 64 64">
  <rect width="64" height="64" rx="16" fill="#eaf7ef"/>
  <path d="M16 36c0-12 8-20 17-20s16 8 16 20H16z M24 36v16h8V36 M36 36v16h8V36 M18 52h28" fill="none" stroke="#0b4f9f" stroke-width="3" stroke-linecap="round" stroke-linejoin="round"/>
  <circle cx="52" cy="52" r="8" fill="#0f7a3a" opacity="0.92"/>
</symbol>
<symbol id="icon-cold-chain" viewBox="0 0 64 64">
  <rect width="64" height="64" rx="16" fill="#eaf7ef"/>
  <path d="M13 19h31l8 10v20H13z M44 19v30 M17 53a4 4 0 1 0 0-8 4 4 0 0 0 0 8z M45 53a4 4 0 1 0 0-8 4 4 0 0 0 0 8z M22 29l20 10 M42 29l-20 10 M32 23v22" fill="none" stroke="#0b4f9f" stroke-width="3" stroke-linecap="round" stroke-linejoin="round"/>
  <circle cx="52" cy="52" r="8" fill="#0f7a3a" opacity="0.92"/>
</symbol>
<symbol id="icon-logistics" viewBox="0 0 64 64">
  <rect width="64" height="64" rx="16" fill="#eaf7ef"/>
  <path d="M8 24h32v21H8z M40 31h9l7 8v6H40z M18 53a5 5 0 1 0 0-10 5 5 0 0 0 0 10z M47 53a5 5 0 1 0 0-10 5 5 0 0 0 0 10z M15 31h17" fill="none" stroke="#0b4f9f" stroke-width="3" stroke-linecap="round" stroke-linejoin="round"/>
  <circle cx="52" cy="52" r="8" fill="#0f7a3a" opacity="0.92"/>
</symbol>
<symbol id="icon-buyers" viewBox="0 0 64 64">
  <rect width="64" height="64" rx="16" fill="#eaf7ef"/>
  <path d="M22 24a8 8 0 1 0 0-16 8 8 0 0 0 0 16z M42 24a8 8 0 1 0 0-16 8 8 0 0 0 0 16z M10 54c1-13 9-22 22-22s21 9 22 22 M22 32c-7 3-11 10-12 22 M42 32c7 3 11 10 12 22" fill="none" stroke="#0b4f9f" stroke-width="3" stroke-linecap="round" stroke-linejoin="round"/>
  <circle cx="52" cy="52" r="8" fill="#0f7a3a" opacity="0.92"/>
</symbol>
<symbol id="icon-market-validation" viewBox="0 0 64 64">
  <rect width="64" height="64" rx="16" fill="#eaf7ef"/>
  <path d="M12 14h40v38H12z M18 24h28 M18 34h20 M18 44h12 M44 42l5 5 9-12" fill="none" stroke="#0b4f9f" stroke-width="3" stroke-linecap="round" stroke-linejoin="round"/>
  <circle cx="52" cy="52" r="8" fill="#0f7a3a" opacity="0.92"/>
</symbol>
<symbol id="icon-revenue" viewBox="0 0 64 64">
  <rect width="64" height="64" rx="16" fill="#eaf7ef"/>
  <path d="M12 50h40 M17 44V28 M29 44V18 M41 44V34 M19 18c8 2 17-2 25-10 M44 8v12h-12" fill="none" stroke="#0b4f9f" stroke-width="3" stroke-linecap="round" stroke-linejoin="round"/>
  <circle cx="52" cy="52" r="8" fill="#0f7a3a" opacity="0.92"/>
</symbol>
<symbol id="icon-financing" viewBox="0 0 64 64">
  <rect width="64" height="64" rx="16" fill="#eaf7ef"/>
  <path d="M12 20h40v28H12z M16 28h32 M22 40h4 M32 40h4 M42 40h4 M32 11v12 M24 14h16" fill="none" stroke="#0b4f9f" stroke-width="3" stroke-linecap="round" stroke-linejoin="round"/>
  <circle cx="52" cy="52" r="8" fill="#0f7a3a" opacity="0.92"/>
</symbol>
<symbol id="icon-ownership" viewBox="0 0 64 64">
  <rect width="64" height="64" rx="16" fill="#eaf7ef"/>
  <path d="M32 12a20 20 0 1 0 0 40 20 20 0 0 0 0-40z M32 12v20h20 M22 38h20" fill="none" stroke="#0b4f9f" stroke-width="3" stroke-linecap="round" stroke-linejoin="round"/>
  <circle cx="52" cy="52" r="8" fill="#0f7a3a" opacity="0.92"/>
</symbol>
<symbol id="icon-training" viewBox="0 0 64 64">
  <rect width="64" height="64" rx="16" fill="#eaf7ef"/>
  <path d="M10 20l22-10 22 10-22 10z M18 25v12c0 6 28 6 28 0V25 M54 20v18" fill="none" stroke="#0b4f9f" stroke-width="3" stroke-linecap="round" stroke-linejoin="round"/>
  <circle cx="52" cy="52" r="8" fill="#0f7a3a" opacity="0.92"/>
</symbol>
<symbol id="icon-installation" viewBox="0 0 64 64">
  <rect width="64" height="64" rx="16" fill="#eaf7ef"/>
  <path d="M12 46h40 M18 46V24h28v22 M24 24v-8h16v8 M24 34h16 M28 46V34 M36 46V34" fill="none" stroke="#0b4f9f" stroke-width="3" stroke-linecap="round" stroke-linejoin="round"/>
  <circle cx="52" cy="52" r="8" fill="#0f7a3a" opacity="0.92"/>
</symbol>
<symbol id="icon-automation" viewBox="0 0 64 64">
  <rect width="64" height="64" rx="16" fill="#eaf7ef"/>
  <path d="M20 32a12 12 0 1 0 24 0 12 12 0 0 0-24 0z M32 8v8 M32 48v8 M8 32h8 M48 32h8 M14 14l6 6 M44 44l6 6 M50 14l-6 6 M20 44l-6 6 M32 26v6l5 4" fill="none" stroke="#0b4f9f" stroke-width="3" stroke-linecap="round" stroke-linejoin="round"/>
  <circle cx="52" cy="52" r="8" fill="#0f7a3a" opacity="0.92"/>
</symbol>
<symbol id="icon-sustainability" viewBox="0 0 64 64">
  <rect width="64" height="64" rx="16" fill="#eaf7ef"/>
  <path d="M32 54c-13-8-19-19-18-32 13-1 23 6 18 32z M32 54c0-18 9-31 24-38 3 18-5 31-24 38z M32 54V31" fill="none" stroke="#0b4f9f" stroke-width="3" stroke-linecap="round" stroke-linejoin="round"/>
  <circle cx="52" cy="52" r="8" fill="#0f7a3a" opacity="0.92"/>
</symbol>
<symbol id="icon-caribbean" viewBox="0 0 64 64">
  <rect width="64" height="64" rx="16" fill="#eaf7ef"/>
  <path d="M18 39c8-12 22-15 34-6 M14 45c10 5 23 5 36 0 M22 26c2-8 6-12 12-16 2 8 0 13-6 18 M35 26c4-6 9-9 16-9-2 7-6 11-14 13" fill="none" stroke="#0b4f9f" stroke-width="3" stroke-linecap="round" stroke-linejoin="round"/>
  <circle cx="52" cy="52" r="8" fill="#0f7a3a" opacity="0.92"/>
</symbol>
<symbol id="icon-africa" viewBox="0 0 64 64">
  <rect width="64" height="64" rx="16" fill="#eaf7ef"/>
  <path d="M33 8c9 5 15 13 15 24 0 10-4 18-11 24l-5-8-6-2-2-8-6-4 2-8 7-2 1-8z M24 13c-6 4-9 10-9 19 0 9 4 17 11 22" fill="none" stroke="#0b4f9f" stroke-width="3" stroke-linecap="round" stroke-linejoin="round"/>
  <circle cx="52" cy="52" r="8" fill="#0f7a3a" opacity="0.92"/>
</symbol>
<symbol id="icon-risk" viewBox="0 0 64 64">
  <rect width="64" height="64" rx="16" fill="#eaf7ef"/>
  <path d="M32 8l24 10v14c0 15-10 24-24 24S8 47 8 32V18z M24 32l6 6 12-14" fill="none" stroke="#0b4f9f" stroke-width="3" stroke-linecap="round" stroke-linejoin="round"/>
  <circle cx="52" cy="52" r="8" fill="#0f7a3a" opacity="0.92"/>
</symbol>
<symbol id="icon-documents" viewBox="0 0 64 64">
  <rect width="64" height="64" rx="16" fill="#eaf7ef"/>
  <path d="M18 8h21l9 9v39H18z M39 8v12h9 M25 29h16 M25 38h16 M25 47h10" fill="none" stroke="#0b4f9f" stroke-width="3" stroke-linecap="round" stroke-linejoin="round"/>
  <circle cx="52" cy="52" r="8" fill="#0f7a3a" opacity="0.92"/>
</symbol>
<symbol id="icon-qa" viewBox="0 0 64 64">
  <rect width="64" height="64" rx="16" fill="#eaf7ef"/>
  <path d="M10 14h34v24H21l-11 10V14z M28 22a5 5 0 0 1 8 4c0 5-7 5-7 10 M29 42h1 M44 32h10v20H42l-6 6v-12" fill="none" stroke="#0b4f9f" stroke-width="3" stroke-linecap="round" stroke-linejoin="round"/>
  <circle cx="52" cy="52" r="8" fill="#0f7a3a" opacity="0.92"/>
</symbol>
<symbol id="icon-action" viewBox="0 0 64 64">
  <rect width="64" height="64" rx="16" fill="#eaf7ef"/>
  <path d="M32 8a24 24 0 1 0 0 48 24 24 0 0 0 0-48z M22 34l7 7 14-18" fill="none" stroke="#0b4f9f" stroke-width="3" stroke-linecap="round" stroke-linejoin="round"/>
  <circle cx="52" cy="52" r="8" fill="#0f7a3a" opacity="0.92"/>
</symbol>
<symbol id="icon-approval" viewBox="0 0 64 64">
  <rect width="64" height="64" rx="16" fill="#eaf7ef"/>
  <path d="M14 34l10 10 26-26 M12 12h40v40H12z" fill="none" stroke="#0b4f9f" stroke-width="3" stroke-linecap="round" stroke-linejoin="round"/>
  <circle cx="52" cy="52" r="8" fill="#0f7a3a" opacity="0.92"/>
</symbol>
<symbol id="icon-partner-access" viewBox="0 0 64 64">
  <rect width="64" height="64" rx="16" fill="#eaf7ef"/>
  <path d="M22 29a10 10 0 1 0 0-20 10 10 0 0 0 0 20z M8 56c2-13 9-21 22-21 M43 35v-5a7 7 0 0 1 14 0v5 M39 35h22v19H39z" fill="none" stroke="#0b4f9f" stroke-width="3" stroke-linecap="round" stroke-linejoin="round"/>
  <circle cx="52" cy="52" r="8" fill="#0f7a3a" opacity="0.92"/>
</symbol>
</svg>
