<svg xmlns="http://www.w3.org/2000/svg" viewBox="0 0 96 96" role="img" aria-labelledby="title-dutch-bucket-systems">
<title id="title-dutch-bucket-systems">Dutch Bucket Systems</title>
<rect x="4" y="4" width="88" height="88" rx="24" fill="#fff" stroke="#DDEADF" stroke-width="2"/>
<circle cx="72" cy="72" r="14" fill="#0B7A3A" opacity=".95"/>
<path d="M18 58h18v18H18z M41 58h18v18H41z M64 58h18v18H64z M27 58V36 M50 58V28 M73 58V36 M27 36c-12-8-14-17-7-24 14 4 19 13 7 24z M50 28c-11-9-10-18-2-25 13 7 15 16 2 25z" fill="none" stroke="#0B4F9F" stroke-width="5" stroke-linecap="round" stroke-linejoin="round"/>
</svg>
