<svg xmlns="http://www.w3.org/2000/svg" viewBox="0 0 720 420" role="img" aria-label="Partner process">
  <defs>
    <linearGradient id="bg" x1="0" x2="1" y1="0" y2="1">
      <stop offset="0" stop-color="#eef9ec"/>
      <stop offset="1" stop-color="#d7f2d1"/>
    </linearGradient>
  </defs>
  <rect width="720" height="420" rx="28" fill="url(#bg)"/>
  <rect x="46" y="46" width="628" height="328" rx="24" fill="#ffffff" opacity=".82" stroke="#0b5f2a" stroke-opacity=".22"/>
  <text x="72" y="104" font-family="Inter, Arial, sans-serif" font-size="34" font-weight="800" fill="#0b3f25">Partner process</text>
  <g fill="none" stroke="#0b5f2a" stroke-width="5" stroke-linecap="round" stroke-linejoin="round">
    <path d="M112 260c64-72 118-92 170-58s88 29 137-16 96-51 157-18"/>
    <path d="M578 168l-6 38 34-16"/>
  </g>
  <g font-family="Inter, Arial, sans-serif" font-size="22" font-weight="700" fill="#0b5f2a">
    <rect x="84" y="282" width="150" height="54" rx="18" fill="#eaf7e7" stroke="#9dd28f"/>
    <text x="112" y="317">Validate</text>
    <rect x="284" y="236" width="150" height="54" rx="18" fill="#e6f5f8" stroke="#78c7d5"/>
    <text x="312" y="271">Model</text>
    <rect x="486" y="282" width="150" height="54" rx="18" fill="#f4fbf1" stroke="#9dd28f"/>
    <text x="514" y="317">Review</text>
  </g>
  <circle cx="128" cy="188" r="34" fill="#0b5f2a" opacity=".12"/>
  <circle cx="592" cy="104" r="44" fill="#2fa84f" opacity=".14"/>
</svg>