<svg xmlns="http://www.w3.org/2000/svg" viewBox="0 0 64 64" role="img" aria-labelledby="title-buyers">
  <title id="title-buyers">Buyers</title>
  <rect width="64" height="64" rx="16" fill="#eaf7ef"/>
  <path d="M22 24a8 8 0 1 0 0-16 8 8 0 0 0 0 16z M42 24a8 8 0 1 0 0-16 8 8 0 0 0 0 16z M10 54c1-13 9-22 22-22s21 9 22 22 M22 32c-7 3-11 10-12 22 M42 32c7 3 11 10 12 22" fill="none" stroke="#0b4f9f" stroke-width="3" stroke-linecap="round" stroke-linejoin="round"/>
  <circle cx="52" cy="52" r="8" fill="#0f7a3a" opacity="0.92"/>
</svg>
