<svg xmlns="http://www.w3.org/2000/svg" style="display:none">
  <symbol id="greenhouse-production" viewBox="0 0 24 24"><path d="M4 18V9l8-5 8 5v9M8 18v-6h8v6M6 9h12" fill="none" stroke="currentColor" stroke-width="1.8" stroke-linecap="round" stroke-linejoin="round"/></symbol>
  <symbol id="hydroponic-towers" viewBox="0 0 24 24"><path d="M8 19V5h8v14M6 8h12M6 12h12M6 16h12" fill="none" stroke="currentColor" stroke-width="1.8" stroke-linecap="round" stroke-linejoin="round"/></symbol>
  <symbol id="water-conservation" viewBox="0 0 24 24"><path d="M12 3s6 6.1 6 10a6 6 0 0 1-12 0c0-3.9 6-10 6-10z" fill="none" stroke="currentColor" stroke-width="1.8" stroke-linecap="round" stroke-linejoin="round"/></symbol>
  <symbol id="nutrient-monitoring" viewBox="0 0 24 24"><path d="M7 4h10M9 4v5l-3 6a4 4 0 0 0 4 6h4a4 4 0 0 0 4-6l-3-6V4M9 14h6" fill="none" stroke="currentColor" stroke-width="1.8" stroke-linecap="round" stroke-linejoin="round"/></symbol>
  <symbol id="roi-returns" viewBox="0 0 24 24"><path d="M4 17l5-5 4 4 7-9M15 7h5v5" fill="none" stroke="currentColor" stroke-width="1.8" stroke-linecap="round" stroke-linejoin="round"/></symbol>
  <symbol id="equity" viewBox="0 0 24 24"><path d="M4 19V5M4 19h16M8 16v-5M12 16V8M16 16v-8" fill="none" stroke="currentColor" stroke-width="1.8" stroke-linecap="round" stroke-linejoin="round"/></symbol>
  <symbol id="secure-documents" viewBox="0 0 24 24"><path d="M7 3h7l4 4v14H7zM14 3v5h5M9 13h6M9 17h6" fill="none" stroke="currentColor" stroke-width="1.8" stroke-linecap="round" stroke-linejoin="round"/></symbol>
  <symbol id="approval-workflow" viewBox="0 0 24 24"><path d="M12 21a9 9 0 1 0-9-9 9 9 0 0 0 9 9zM8 12l3 3 5-6" fill="none" stroke="currentColor" stroke-width="1.8" stroke-linecap="round" stroke-linejoin="round"/></symbol>
  <symbol id="email-invitation" viewBox="0 0 24 24"><path d="M4 6h16v12H4zM4 7l8 6 8-6" fill="none" stroke="currentColor" stroke-width="1.8" stroke-linecap="round" stroke-linejoin="round"/></symbol>
  <symbol id="investor-access" viewBox="0 0 24 24"><path d="M7 11V8a5 5 0 0 1 10 0v3M6 11h12v9H6z" fill="none" stroke="currentColor" stroke-width="1.8" stroke-linecap="round" stroke-linejoin="round"/></symbol>
  <symbol id="analytics" viewBox="0 0 24 24"><path d="M5 19V5M5 19h14M9 16v-5M13 16V8M17 16v-8" fill="none" stroke="currentColor" stroke-width="1.8" stroke-linecap="round" stroke-linejoin="round"/></symbol>
  <symbol id="qa" viewBox="0 0 24 24"><path d="M5 6h14v10H9l-4 4zM10 10h4M10 13h7" fill="none" stroke="currentColor" stroke-width="1.8" stroke-linecap="round" stroke-linejoin="round"/></symbol>
  <symbol id="risk-management" viewBox="0 0 24 24"><path d="M12 3l9 16H3zM12 9v4M12 17h.01" fill="none" stroke="currentColor" stroke-width="1.8" stroke-linecap="round" stroke-linejoin="round"/></symbol>
  <symbol id="solar-energy" viewBox="0 0 24 24"><path d="M12 8a4 4 0 1 0 0 8 4 4 0 0 0 0-8zM12 2v3M12 19v3M4.2 4.2l2.1 2.1M17.7 17.7l2.1 2.1M2 12h3M19 12h3" fill="none" stroke="currentColor" stroke-width="1.8" stroke-linecap="round" stroke-linejoin="round"/></symbol>
  <symbol id="cold-chain" viewBox="0 0 24 24"><path d="M12 3v18M7 6l10 12M17 6L7 18M5 12h14" fill="none" stroke="currentColor" stroke-width="1.8" stroke-linecap="round" stroke-linejoin="round"/></symbol>
  <symbol id="mushrooms" viewBox="0 0 24 24"><path d="M5 11a7 7 0 0 1 14 0H5zM9 11v8h6v-8" fill="none" stroke="currentColor" stroke-width="1.8" stroke-linecap="round" stroke-linejoin="round"/></symbol>
  <symbol id="leafy-greens" viewBox="0 0 24 24"><path d="M6 18c7 0 12-5 12-12-7 0-12 5-12 12zM6 18l9-9" fill="none" stroke="currentColor" stroke-width="1.8" stroke-linecap="round" stroke-linejoin="round"/></symbol>
  <symbol id="microgreens" viewBox="0 0 24 24"><path d="M6 19V9M12 19V7M18 19v-8M6 9c-2 0-3-1-3-3 3 0 3 3 3 3zM12 7c-3 0-4-2-4-4 4 0 4 4 4 4zM18 11c2 0 3-1 3-3-3 0-3 3-3 3z" fill="none" stroke="currentColor" stroke-width="1.8" stroke-linecap="round" stroke-linejoin="round"/></symbol>
  <symbol id="buyer-demand" viewBox="0 0 24 24"><path d="M4 18c1.5-3 4-4 8-4s6.5 1 8 4M8 8a4 4 0 1 0 8 0 4 4 0 0 0-8 0z" fill="none" stroke="currentColor" stroke-width="1.8" stroke-linecap="round" stroke-linejoin="round"/></symbol>
  <symbol id="caribbean-expansion" viewBox="0 0 24 24"><path d="M4 15c4-4 7 3 11-1 2-1 3-3 5-5M5 19h14M8 9l2 2" fill="none" stroke="currentColor" stroke-width="1.8" stroke-linecap="round" stroke-linejoin="round"/></symbol>
  <symbol id="africa-expansion" viewBox="0 0 24 24"><path d="M12 3c4 2 6 6 5 10l-3 6h-4l-3-6c-1-4 1-8 5-10zM10 12h4" fill="none" stroke="currentColor" stroke-width="1.8" stroke-linecap="round" stroke-linejoin="round"/></symbol>
  <symbol id="sustainability" viewBox="0 0 24 24"><path d="M5 15c8 0 13-5 14-11-7 0-13 4-14 11zM5 15c2 3 6 5 11 5M5 15l9-8" fill="none" stroke="currentColor" stroke-width="1.8" stroke-linecap="round" stroke-linejoin="round"/></symbol>
  <symbol id="logistics" viewBox="0 0 24 24"><path d="M3 8h11v8H3zM14 11h4l3 3v2h-7zM7 19a2 2 0 1 0 0-4 2 2 0 0 0 0 4zM17 19a2 2 0 1 0 0-4 2 2 0 0 0 0 4z" fill="none" stroke="currentColor" stroke-width="1.8" stroke-linecap="round" stroke-linejoin="round"/></symbol>
  <symbol id="automation" viewBox="0 0 24 24"><path d="M12 8a4 4 0 1 0 0 8 4 4 0 0 0 0-8zM12 2v3M12 19v3M4.9 4.9l2.1 2.1M17 17l2.1 2.1M2 12h3M19 12h3" fill="none" stroke="currentColor" stroke-width="1.8" stroke-linecap="round" stroke-linejoin="round"/></symbol>
  <symbol id="request-call" viewBox="0 0 24 24"><path d="M7 4l3 5-2 2c1 2 3 4 5 5l2-2 5 3-2 4c-8 0-15-7-15-15z" fill="none" stroke="currentColor" stroke-width="1.8" stroke-linecap="round" stroke-linejoin="round"/></symbol>
  <symbol id="save-scenario" viewBox="0 0 24 24"><path d="M5 4h12l2 2v14H5zM8 4v6h8V4M8 18h8" fill="none" stroke="currentColor" stroke-width="1.8" stroke-linecap="round" stroke-linejoin="round"/></symbol>
  <symbol id="objections" viewBox="0 0 24 24"><path d="M4 5h16v12H8l-4 4zM9 9h6M9 13h4" fill="none" stroke="currentColor" stroke-width="1.8" stroke-linecap="round" stroke-linejoin="round"/></symbol>
  <symbol id="comments" viewBox="0 0 24 24"><path d="M5 5h14v10H9l-4 4zM9 9h6M9 12h8" fill="none" stroke="currentColor" stroke-width="1.8" stroke-linecap="round" stroke-linejoin="round"/></symbol>
  <symbol id="document-center" viewBox="0 0 24 24"><path d="M6 3h9l3 3v15H6zM15 3v4h4M9 12h6M9 16h6" fill="none" stroke="currentColor" stroke-width="1.8" stroke-linecap="round" stroke-linejoin="round"/></symbol>
</svg>
