<svg xmlns="http://www.w3.org/2000/svg" style="display:none">
  <symbol id="icon-land" viewBox="0 0 24 24"><path d="M3 18h18M4 18l4-8 4 8m0 0 3-6 5 6" fill="none" stroke="currentColor" stroke-width="1.8" stroke-linecap="round" stroke-linejoin="round"/></symbol>
  <symbol id="icon-territory" viewBox="0 0 24 24"><path d="M4 6l5-2 6 2 5-2v14l-5 2-6-2-5 2V6Zm5-2v14m6-12v14" fill="none" stroke="currentColor" stroke-width="1.8" stroke-linejoin="round"/></symbol>
  <symbol id="icon-water" viewBox="0 0 24 24"><path d="M12 3s7 7.2 7 12a7 7 0 1 1-14 0c0-4.8 7-12 7-12Z" fill="none" stroke="currentColor" stroke-width="1.8"/><path d="M8.5 15.5c1.2 1.7 3.2 2.4 5.4 1.8" fill="none" stroke="currentColor" stroke-width="1.8" stroke-linecap="round"/></symbol>
  <symbol id="icon-rainfall" viewBox="0 0 24 24"><path d="M7 14a5 5 0 1 1 9.7-2H18a3 3 0 0 1 0 6H7a4 4 0 1 1 0-8" fill="none" stroke="currentColor" stroke-width="1.8" stroke-linecap="round"/><path d="M8 21l1-2m4 2 1-2m4 2 1-2" stroke="currentColor" stroke-width="1.8" stroke-linecap="round"/></symbol>
  <symbol id="icon-solar" viewBox="0 0 24 24"><circle cx="12" cy="8" r="3.2" fill="none" stroke="currentColor" stroke-width="1.8"/><path d="M12 1.8v2M12 12.2v2M5.7 3.7l1.4 1.4M16.9 14.9l1.4 1.4M3.8 8h-2M22.2 8h-2M4 20h16l-2-5H6l-2 5Z" fill="none" stroke="currentColor" stroke-width="1.8" stroke-linecap="round" stroke-linejoin="round"/></symbol>
  <symbol id="icon-electricity" viewBox="0 0 24 24"><path d="M13 2 5 14h6l-1 8 8-13h-6l1-7Z" fill="none" stroke="currentColor" stroke-width="1.8" stroke-linejoin="round"/></symbol>
  <symbol id="icon-climate" viewBox="0 0 24 24"><path d="M5 16a7 7 0 1 0 14 0c0-5-7-13-7-13S5 11 5 16Z" fill="none" stroke="currentColor" stroke-width="1.8"/><path d="M8.5 16h7" stroke="currentColor" stroke-width="1.8" stroke-linecap="round"/></symbol>
  <symbol id="icon-altitude" viewBox="0 0 24 24"><path d="M3 20h18L12 4 8 12l-2-3-3 11Z" fill="none" stroke="currentColor" stroke-width="1.8" stroke-linejoin="round"/></symbol>
  <symbol id="icon-greenhouse" viewBox="0 0 24 24"><path d="M3 20V9l9-6 9 6v11M6 20V10.8L12 7l6 3.8V20M3 20h18M9 20v-5h6v5" fill="none" stroke="currentColor" stroke-width="1.8" stroke-linejoin="round"/></symbol>
  <symbol id="icon-hydroponics" viewBox="0 0 24 24"><path d="M4 17h16M6 14h12M8 11h8M12 21V8M9 8c-2-.2-4-1.6-4-4 2.6.1 4 1.5 4 4Zm6 0c2-.2 4-1.6 4-4-2.6.1-4 1.5-4 4Z" fill="none" stroke="currentColor" stroke-width="1.8" stroke-linecap="round" stroke-linejoin="round"/></symbol>
  <symbol id="icon-crops" viewBox="0 0 24 24"><path d="M12 21V9M12 12c-4.5-.2-7-2.8-7-7 4.2.1 6.5 2.1 7 7Zm0 3c4.5-.2 7-2.8 7-7-4.2.1-6.5 2.1-7 7Z" fill="none" stroke="currentColor" stroke-width="1.8" stroke-linecap="round" stroke-linejoin="round"/></symbol>
  <symbol id="icon-microgreens" viewBox="0 0 24 24"><path d="M4 19h16M6 19c0-4 2-7 5-8 0 4-1.5 7-5 8Zm6 0c0-5 2.5-9 6-11 .2 5-2 9-6 11Zm-3-9V6m6 4V5" fill="none" stroke="currentColor" stroke-width="1.8" stroke-linecap="round" stroke-linejoin="round"/></symbol>
  <symbol id="icon-mushrooms" viewBox="0 0 24 24"><path d="M4 11c.6-4.5 4-7 8-7s7.4 2.5 8 7H4Zm5 9v-9h6v9M8 20h8" fill="none" stroke="currentColor" stroke-width="1.8" stroke-linejoin="round"/></symbol>
  <symbol id="icon-coldchain" viewBox="0 0 24 24"><path d="M12 3v18M5 6l14 12M19 6 5 18M4 12h16" stroke="currentColor" stroke-width="1.8" stroke-linecap="round"/></symbol>
  <symbol id="icon-logistics" viewBox="0 0 24 24"><path d="M3 7h11v10H3V7Zm11 4h4l3 3v3h-7v-6ZM7 19a2 2 0 1 0 0-4 2 2 0 0 0 0 4Zm10 0a2 2 0 1 0 0-4 2 2 0 0 0 0 4Z" fill="none" stroke="currentColor" stroke-width="1.8" stroke-linejoin="round"/></symbol>
  <symbol id="icon-buyers" viewBox="0 0 24 24"><path d="M4 20V8h16v12M7 8V6a5 5 0 0 1 10 0v2M8 13h8" fill="none" stroke="currentColor" stroke-width="1.8" stroke-linecap="round" stroke-linejoin="round"/></symbol>
  <symbol id="icon-hotel" viewBox="0 0 24 24"><path d="M5 21V4h9v17M14 10h5v11M8 8h3m-3 4h3m-3 4h3m8-1h1" fill="none" stroke="currentColor" stroke-width="1.8" stroke-linecap="round" stroke-linejoin="round"/></symbol>
  <symbol id="icon-market" viewBox="0 0 24 24"><path d="M4 10h16l-1-5H5l-1 5Zm1 0v10h14V10M8 14h8" fill="none" stroke="currentColor" stroke-width="1.8" stroke-linejoin="round"/></symbol>
  <symbol id="icon-finance" viewBox="0 0 24 24"><path d="M4 19h16M6 17V8m6 9V5m6 12v-7M5 8l7-4 7 6" fill="none" stroke="currentColor" stroke-width="1.8" stroke-linecap="round" stroke-linejoin="round"/></symbol>
  <symbol id="icon-government" viewBox="0 0 24 24"><path d="M3 10h18L12 4 3 10Zm2 0v9m4-9v9m6-9v9m4-9v9M3 19h18" fill="none" stroke="currentColor" stroke-width="1.8" stroke-linejoin="round"/></symbol>
  <symbol id="icon-ownership" viewBox="0 0 24 24"><circle cx="8" cy="12" r="5" fill="none" stroke="currentColor" stroke-width="1.8"/><circle cx="16" cy="12" r="5" fill="none" stroke="currentColor" stroke-width="1.8"/><path d="M12 8a5 5 0 0 1 0 8 5 5 0 0 1 0-8Z" fill="currentColor" opacity=".25"/></symbol>
  <symbol id="icon-training" viewBox="0 0 24 24"><path d="M4 6h16v12H4V6Zm3 12v3m10-3v3M8 10h8m-8 4h5" fill="none" stroke="currentColor" stroke-width="1.8" stroke-linecap="round" stroke-linejoin="round"/></symbol>
  <symbol id="icon-installation" viewBox="0 0 24 24"><path d="M5 20h14M7 20V8l5-4 5 4v12M9 13h6" fill="none" stroke="currentColor" stroke-width="1.8" stroke-linejoin="round"/></symbol>
  <symbol id="icon-support" viewBox="0 0 24 24"><path d="M4 12a8 8 0 0 1 16 0v5a3 3 0 0 1-3 3h-3M4 12v4h4v-4H4Zm12 0v4h4v-4h-4Z" fill="none" stroke="currentColor" stroke-width="1.8" stroke-linecap="round"/></symbol>
  <symbol id="icon-survey" viewBox="0 0 24 24"><path d="M7 3h10v18H7V3Zm3 5h4m-4 4h4m-4 4h2" fill="none" stroke="currentColor" stroke-width="1.8" stroke-linecap="round"/></symbol>
  <symbol id="icon-score" viewBox="0 0 24 24"><path d="M4 18a8 8 0 1 1 16 0M12 18l4-7M7 18h10" fill="none" stroke="currentColor" stroke-width="1.8" stroke-linecap="round"/></symbol>
  <symbol id="icon-risk" viewBox="0 0 24 24"><path d="M12 3 2.8 20h18.4L12 3Z" fill="none" stroke="currentColor" stroke-width="1.8" stroke-linejoin="round"/><path d="M12 9v5m0 3h.01" stroke="currentColor" stroke-width="2" stroke-linecap="round"/></symbol>
  <symbol id="icon-docs" viewBox="0 0 24 24"><path d="M7 3h7l4 4v14H7V3Z" fill="none" stroke="currentColor" stroke-width="1.8" stroke-linejoin="round"/><path d="M14 3v5h5M9.5 13h5M9.5 16h5" stroke="currentColor" stroke-width="1.8" stroke-linecap="round"/></symbol>
  <symbol id="icon-meeting" viewBox="0 0 24 24"><path d="M4 5h16v12H7l-3 3V5Zm5 5h6m-6 4h4" fill="none" stroke="currentColor" stroke-width="1.8" stroke-linecap="round" stroke-linejoin="round"/></symbol>
  <symbol id="icon-overview" viewBox="0 0 24 24"><path d="M4 11 12 4l8 7v9H5v-8" fill="none" stroke="currentColor" stroke-width="1.8" stroke-linejoin="round"/><path d="M9 20v-6h6v6" fill="none" stroke="currentColor" stroke-width="1.8"/></symbol>
  <symbol id="icon-partner-model" viewBox="0 0 24 24"><path d="M8 12a4 4 0 1 0 0-8 4 4 0 0 0 0 8Zm8 8a4 4 0 1 0 0-8 4 4 0 0 0 0 8ZM8 12l4 2m4-2-4 2M8 12v4" fill="none" stroke="currentColor" stroke-width="1.8" stroke-linecap="round"/></symbol>
  <symbol id="icon-rainwater" viewBox="0 0 24 24"><path d="M5 10h14l-2 10H7L5 10Zm3-3h8M9 4h6" fill="none" stroke="currentColor" stroke-width="1.8" stroke-linecap="round" stroke-linejoin="round"/><path d="M9 14h6" stroke="currentColor" stroke-width="1.8" stroke-linecap="round"/></symbol>
  <symbol id="icon-revenue" viewBox="0 0 24 24"><path d="M4 19h16M6 16l4-5 4 3 4-7" fill="none" stroke="currentColor" stroke-width="1.8" stroke-linecap="round" stroke-linejoin="round"/><path d="M18 7h-4m4 0v4" fill="none" stroke="currentColor" stroke-width="1.8" stroke-linecap="round"/></symbol>
  <symbol id="icon-validation" viewBox="0 0 24 24"><path d="M5 4h14v16H5V4Zm4 5h6m-6 4h6m-6 4h3" fill="none" stroke="currentColor" stroke-width="1.8" stroke-linecap="round"/><path d="m15 16 1.3 1.3L19 14.5" fill="none" stroke="currentColor" stroke-width="1.8" stroke-linecap="round" stroke-linejoin="round"/></symbol>
  <symbol id="icon-action" viewBox="0 0 24 24"><path d="M12 3v6l4-4m-4 4L8 5M5 13h14v7H5v-7Z" fill="none" stroke="currentColor" stroke-width="1.8" stroke-linecap="round" stroke-linejoin="round"/></symbol>
  <symbol id="icon-qa" viewBox="0 0 24 24"><path d="M4 5h16v11H8l-4 4V5Zm6 4a2 2 0 1 1 3.5 1.3c-.8.7-1.5 1.1-1.5 2.2m0 2h.01" fill="none" stroke="currentColor" stroke-width="1.8" stroke-linecap="round" stroke-linejoin="round"/></symbol>
</svg>
