<svg xmlns="http://www.w3.org/2000/svg" viewBox="0 0 620 180" role="img" aria-labelledby="title desc">
  <title id="title">SymbioGreens Balponics</title>
  <desc id="desc">Combined SymbioGreens and Balponics investor portal brand mark.</desc>
  <defs>
    <linearGradient id="leafGradient" x1="56" y1="30" x2="139" y2="151" gradientUnits="userSpaceOnUse">
      <stop offset="0" stop-color="#4fbf7a"/>
      <stop offset="0.48" stop-color="#168f5b"/>
      <stop offset="1" stop-color="#0d6c4a"/>
    </linearGradient>
    <linearGradient id="waterGradient" x1="105" y1="48" x2="161" y2="138" gradientUnits="userSpaceOnUse">
      <stop offset="0" stop-color="#7ed6df"/>
      <stop offset="1" stop-color="#178fb0"/>
    </linearGradient>
    <filter id="softShadow" x="-12%" y="-12%" width="124%" height="124%">
      <feDropShadow dx="0" dy="8" stdDeviation="8" flood-color="#0b3b2a" flood-opacity="0.14"/>
    </filter>
  </defs>
  <rect x="18" y="18" width="144" height="144" rx="34" fill="#f7fff9" stroke="#d8eadf" filter="url(#softShadow)"/>
  <path d="M60 115c4-38 32-68 76-72-4 44-36 74-76 72Z" fill="url(#leafGradient)"/>
  <path d="M62 114c23-13 44-34 67-62" fill="none" stroke="#ffffff" stroke-width="7" stroke-linecap="round"/>
  <path d="M112 125c0-25 20-43 31-61 12 19 31 37 31 61 0 23-13 38-31 38s-31-15-31-38Z" transform="translate(-20 -9) scale(.72)" fill="url(#waterGradient)" opacity=".96"/>
  <circle cx="91" cy="91" r="54" fill="none" stroke="#c99b33" stroke-width="5" stroke-linecap="round" stroke-dasharray="72 22"/>
  <g fill="#16392a">
    <text x="196" y="74" font-family="Arial, Helvetica, sans-serif" font-size="42" font-weight="900" letter-spacing="0">SymbioGreens</text>
    <text x="198" y="119" font-family="Arial, Helvetica, sans-serif" font-size="34" font-weight="800" letter-spacing="0" fill="#126b4a">Balponics</text>
    <text x="200" y="148" font-family="Arial, Helvetica, sans-serif" font-size="17" font-weight="700" letter-spacing="2.4" fill="#6b7c70">INVESTOR PORTAL</text>
  </g>
</svg>
