<svg xmlns="http://www.w3.org/2000/svg" viewBox="0 0 900 420"><defs><linearGradient id="g" x1="0" x2="1"><stop stop-color="#effaf3"/><stop offset="1" stop-color="#eef7ff"/></linearGradient></defs><rect width="900" height="420" rx="28" fill="url(#g)"/><path d="M0 340 C160 260 260 360 420 285 C560 220 700 235 900 160 L900 420 L0 420z" fill="#dff3e5"/><path d="M60 310h400V185L260 70 60 185z" fill="white" stroke="#0f7a3a" stroke-width="6"/><path d="M95 310V205l165-90 165 90v105" fill="none" stroke="#0b4f9f" stroke-width="5"/><path d="M145 300c28-58 76-58 105 0M250 300c28-58 76-58 105 0" fill="none" stroke="#0f7a3a" stroke-width="5"/><circle cx="690" cy="120" r="44" fill="#fff" stroke="#c99a2e" stroke-width="5"/><path d="M560 310h260M600 280h180M630 250h120" stroke="#0b4f9f" stroke-width="8" stroke-linecap="round"/><text x="60" y="45" font-family="Arial" font-weight="800" font-size="30" fill="#123022">Partner Hub Development Model</text><text x="565" y="360" font-family="Arial" font-weight="700" font-size="22" fill="#0f7a3a">Land • Water • Solar • Buyers • Finance</text></svg>